{"title":"WC.2017.10.22.HDTV.XviD-FICEK9","magnet":"magnet:?xt=urn:btih:5cda8eb3710fc8b140328565dacc1382957c1d5c&dn=WC.2017.10.22.HDTV.XviD-FICEK9&tr=udp%3A%2F%2Ftracker.leechers-paradise.org%3A6969&tr=udp%3A%2F%2Fzer0day.ch%3A1337&tr=udp%3A%2F%2Fopen.demonii.com%3A1337&tr=udp%3A%2F%2Ftracker.coppersurfer.tk%3A6969&tr=udp%3A%2F%2Fexodus.desync.com%3A6969","uploader":"FICEK9","categoryP":"video","categoryS":"tv_shows","size":"1564103602","seeders":"1","leechers":"0","description":"      Complete name :\n      Format : AVI\r\n      Format/Info : Audio Video Interleave\r\n      Format profile : OpenDML\r\n      File size : 1.46 GiB\r\n      Duration : 3h 3mn\r\n      Overall bit rate mode : Variable\r\n      Overall bit rate : 1 139 Kbps\r\n      Writing application : Lavf57.41.100\r\n   Video #0\r\n      ID : 0\r\n      Format : xvid\r\n      Codec ID : xvid\r\n      Duration : 3h 3mn\r\n      Bit rate : 1 015 Kbps\r\n      Width : 624 pixels\r\n      Height : 352 pixels\r\n      Display aspect ratio : 16:9\r\n      Frame rate : 29.970 fps\r\n      Bits/(Pixel*Frame) : 0.154\r\n      Stream size : 1.30 GiB (89%)\r\n   Audio #1\r\n      ID : 1\r\n      Format : MPEG Audio\r\n      Format version : Version 1\r\n      Format profile : Layer 3\r\n      Mode : Joint stereo\r\n      Codec ID : 55\r\n      Codec ID/Hint : MP3\r\n      Duration : 3h 3mn\r\n      Bit rate mode : Variable\r\n      Bit rate : 109 Kbps\r\n      Channel(s) : 2 channels\r\n      Sampling rate : 48.0 KHz\r\n      Compression mode : Lossy\r\n      Stream size : 142 MiB (10%)\r\n      Alignment : Aligned on interleaves\r\n      Interleave, duration : 24 ms (0.72 video frame)\r\n      Writing library : LAME3.99.5","last_updated":"2018-04-28T12:08:05.000Z","parsed":{"xt":"urn:btih:5cda8eb3710fc8b140328565dacc1382957c1d5c","dn":"WC.2017.10.22.HDTV.XviD-FICEK9","tr":["udp://exodus.desync.com:6969","udp://open.demonii.com:1337","udp://tracker.coppersurfer.tk:6969","udp://tracker.leechers-paradise.org:6969","udp://zer0day.ch:1337"],"infoHash":"5cda8eb3710fc8b140328565dacc1382957c1d5c","infoHashBuffer":{"type":"Buffer","data":[92,218,142,179,113,15,200,177,64,50,133,101,218,204,19,130,149,124,29,92]},"name":"WC.2017.10.22.HDTV.XviD-FICEK9","announce":["udp://exodus.desync.com:6969","udp://open.demonii.com:1337","udp://tracker.coppersurfer.tk:6969","udp://tracker.leechers-paradise.org:6969","udp://zer0day.ch:1337"],"urlList":[]}}